<svg xmlns="http://www.w3.org/2000/svg" fill="none" viewBox="0 0 24 24" id="Tiktok-Icon--Streamline-Svg-Logos" height="24" width="24">
  <desc>
    Tiktok Icon Streamline Icon: https://streamlinehq.com
  </desc>
  <path fill="#ff004f" d="M17.0143 8.73295c1.517375 1.084125 3.3762 1.721975 5.38385 1.721975V6.593625c-0.37995 0.000075 -0.758925 -0.039525 -1.13065 -0.11825v3.039425c-2.007475 0 -3.866075 -0.637875 -5.383825 -1.7219v7.8798c0 3.9419 -3.197175 7.1372 -7.140825 7.1372 -1.471475 0 -2.83915 -0.444625 -3.975275 -1.207175 1.2967 1.32515 3.10505 2.147225 5.105675 2.147225 3.9439 0 7.141225 -3.1953 7.141225 -7.137325V8.73295h-0.000175Zm1.394775 -3.895575c-0.77545 -0.84675 -1.2846 -1.941025 -1.394775 -3.1507875V1.1899425h-1.07145c0.2697 1.5376075 1.1896 2.8512325 2.466225 3.6474325ZM7.26195 18.577825c-0.43325 -0.567775 -0.6674 -1.26235 -0.66635 -1.9765 0 -1.802875 1.462375 -3.26465 3.266525 -3.26465 0.336225 -0.0001 0.67045 0.051375 0.990875 0.152975V9.54205c-0.374475 -0.0513 -0.7524 -0.073075 -1.13015 -0.065075v3.072625c-0.320675 -0.101625 -0.65505 -0.15325 -0.991375 -0.152925 -1.80415 0 -3.266425 1.461625 -3.266425 3.26475 0 1.274925 0.730925 2.3787 1.7969 2.9164Z" stroke-width="0.25"></path>
  <path fill="#000000" d="M15.8836 7.792825c1.517775 1.084025 3.376375 1.721875 5.38385 1.721875V6.4753c-1.120575 -0.23855 -2.112575 -0.82385 -2.858425 -1.637925 -1.2767 -0.796275 -2.196525 -2.1099 -2.466225 -3.6474325H13.128425V16.61245c-0.006375 1.79795 -1.466225 3.253775 -3.266525 3.253775 -1.060875 0 -2.00335 -0.50545 -2.60025 -1.2884 -1.065875 -0.5377 -1.796825 -1.64155 -1.796825 -2.916325 0 -1.80295 1.462275 -3.26475 3.266425 -3.26475 0.345675 0 0.67885 0.0538 0.991375 0.152925V9.47705c-3.874375 0.08 -6.990325 3.244075 -6.990325 7.135475 0 1.94255 0.77595 3.703575 2.0353 4.990275 1.136125 0.762475 2.5038 1.207175 3.975275 1.207175 3.94375 0 7.140825 -3.19545 7.140825 -7.137275l-0.0001 -7.879875Z" stroke-width="0.25"></path>
  <path fill="#00f2ea" d="M21.2675 6.47535v-0.821825c-1.01045 0.001525 -2.0011 -0.281325 -2.8584 -0.8162 0.758925 0.830475 1.75825 1.403075 2.8584 1.638025ZM15.942875 1.189985c-0.025725 -0.1469475 -0.0455 -0.29486 -0.0592 -0.4433375V0.25H11.997775v15.422675c-0.006225 1.7977 -1.466 3.253525 -3.26645 3.253525 -0.528575 0 -1.02765 -0.1254 -1.469625 -0.34825 0.5969 0.782875 1.5394 1.288225 2.600275 1.288225 1.800125 0 3.260225 -1.45565 3.2665 -3.2536V1.189985h2.8144ZM9.72285 9.477075v-0.8749c-0.3247 -0.04435 -0.652075 -0.0666 -0.979825 -0.06645 -3.944075 0 -7.1412175 3.195375 -7.1412175 7.13695 0 2.471125 1.2565425 4.64895 3.1659425 5.93 -1.25935 -1.286625 -2.0353 -3.0477 -2.0353 -4.990175 0 -3.891325 3.11585 -7.0554 6.9904 -7.135425Z" stroke-width="0.25"></path>
</svg>